/* XPM */
static char *c55e208deeac4ffbe859a0e3c5047f17Q6tz5T595OsCB8xi[] = {
/* columns rows colors chars-per-pixel */
"50 50 8 1 ",
"  c #181425",
". c #102972",
"X c #3A4466",
"o c #10589E",
"O c #657392",
"+ c #0095E9",
"@ c #2CE8F5",
"# c white",
/* pixels */
"OOOOOOOOOOOOOOOOOO..............OOOOOOOOOOOOOOOOOO",
"OOOOOOOOOOOOOOOOOO..............OOOOOOOOOOOOOOOOOO",
"OOOOOOOOOOOOOOOOOO..............OOOOOOOOOOOOOOOOOO",
"OOOOOOOOOOOOOOOOOO..............OOOOOOOOOOOOOOOOOO",
"OOOOOOOOOOOOOO....@@@########@@@....OOOOOOOOOOOOOO",
"OOOOOOOOOOOOOO....@@@########@@@....OOOOOOOOOOOOOO",
"OOOOOOOOOOOOOO....@@@########@@@....OOOOOOOOOOOOOO",
"OOOOOOOOOOO...@@@@@@@########@@@####...OOOOOOOOOOO",
"OOOOOOOOOOO...@@@@@@@########@@@####...OOOOOOOOOOO",
"OOOOOOOOOOO...@@@@@@@########@@@####...OOOOOOOOOOO",
"OOOOOOOOOOO...@@@@@@@########@@@####...OOOOOOOOOOO",
"OOOOOOO....@@@@@@@ooo........ooo####@@@....OOOOOOO",
"OOOOOOO....@@@@@@@ooo........ooo####@@@....OOOOOOO",
"OOOOOOO....@@@@@@@ooo........ooo####@@@....OOOOOOO",
"OOOOOOO....@@@oooo...++++oooo...oooo@@@....OOOOOOO",
"OOOOOOO....@@@oooo...++++oooo...oooo@@@....OOOOOOO",
"OOOOOOO....@@@oooo...++++oooo...oooo@@@....OOOOOOO",
"OOOOOOO....@@@oooo...++++oooo...oooo@@@....OOOOOOO",
"OOOOOOO    +++oooo...++++oooo...oooo+++    OOOOOOO",
"OOOOOOO    +++oooo...++++oooo...oooo+++    OOOOOOO",
"OOOOOOO    +++oooo...++++oooo...oooo+++    OOOOOOO",
"OOOOOOO    +++oooo...oooooooo...oooo+++    OOOOOOO",
"OOOOOOO    +++oooo...oooooooo...oooo+++    OOOOOOO",
"OOOOOOO    +++oooo...oooooooo...oooo+++    OOOOOOO",
"OOOOOOO    +++oooo...oooooooo...oooo+++    OOOOOOO",
"OOOOOOOOOOO   ++++ooo........ooo++++   OOOOOOOOOOO",
"OOOOOOOOOOO   ++++ooo........ooo++++   OOOOOOOOOOO",
"OOOOOOOOOOO   ++++ooo........ooo++++   OOOOOOOOOOO",
"OOOOOOOOOOO   ++++ooo........ooo++++   OOOOOOOOOOO",
"OOOOOOOOOOOOOO    ++++++++++++++    OOOOOOOOOOOOOO",
"OOOOOOOOOOOOOO    ++++++++++++++    OOOOOOOOOOOOOO",
"OOOOOOOOOOOOOO    ++++++++++++++    OOOOOOOOOOOOOO",
"OOOOOOOOOOOOOOOOOO              OOOOOOOOOOOOOOOOOO",
"OOOOOOOOOOOOOOOOOO              OOOOOOOOOOOOOOOOOO",
"OOOOOOOOOOOOOOOOOO              OOOOOOOOOOOOOOOOOO",
"OOOOOOOOOOOOOOOOOO              OOOOOOOOOOOOOOOOOO",
"OOOOOOOOOOOOOOOOOOOOOOOOOOOOOOOOOOOOOOOOOOOOOOOOOO",
"OOOOOOOOOOOOOOOOOOOOOOOOOOOOOOOOOOOOOOOOOOOOOOOOOO",
"OOOOOOOOOOOOOOOOOOOOOOOOOOOOOOOOOOOOOOOOOOOOOOOOOO",
"OOOOOOOOOOOXXXXXXXXXXXXXXXXXXXXXXXXXXXXOOOOOOOOOOO",
"OOOOOOOOOOOXXXXXXXXXXXXXXXXXXXXXXXXXXXXOOOOOOOOOOO",
"OOOOOOOOOOOXXXXXXXXXXXXXXXXXXXXXXXXXXXXOOOOOOOOOOO",
"OOOOOOOOOOOXXXXXXXXXXXXXXXXXXXXXXXXXXXXOOOOOOOOOOO",
"OOOOOOOXXXXXXXXXXXXXXXXXXXXXXXXXXXXXXXXXXXXOOOOOOO",
"OOOOOOOXXXXXXXXXXXXXXXXXXXXXXXXXXXXXXXXXXXXOOOOOOO",
"OOOOOOOXXXXXXXXXXXXXXXXXXXXXXXXXXXXXXXXXXXXOOOOOOO",
"OOOOOOOOOOOXXXXXXXXXXXXXXXXXXXXXXXXXXXXOOOOOOOOOOO",
"OOOOOOOOOOOXXXXXXXXXXXXXXXXXXXXXXXXXXXXOOOOOOOOOOO",
"OOOOOOOOOOOXXXXXXXXXXXXXXXXXXXXXXXXXXXXOOOOOOOOOOO",
"OOOOOOOOOOOXXXXXXXXXXXXXXXXXXXXXXXXXXXXOOOOOOOOOOO"
};
