/* XPM */
static char *aad6242d82f84b46fa8cb7d28d75cb65JnxDjNeFX4NI8Uh1[] = {
/* columns rows colors chars-per-pixel */
"50 50 6 1 ",
"  c #181425",
". c #2A2F4E",
"X c #424C6E",
"o c #657392",
"O c #92A1B9",
"+ c #C7CFDD",
/* pixels */
"ooooooooooooooooooooooooooooooo                   ",
"ooooooooooooooooooooooooooooooo                   ",
"ooooooooooooooooooooooooooooooo                   ",
"ooooooooooooooooooooooooooooooo   +++++++++++++   ",
"ooooooooooooooooooooooooooooooo   +++++++++++++   ",
"ooooooooooooooooooooooooooooooo   +++++++++++++   ",
"ooooooooooooooooooooooooooooooo   +++OOOOOOOOOO   ",
"ooooooooooooooooooooooooooooooo   +++OOOOOOOOOO   ",
"ooooooooooooooooooooooooooooooo   +++OOOOOOOOOO   ",
"oooooooooooooooooooooo            +++OOOOOOOOOO   ",
"oooooooooooooooooooooo            +++OOOOOOOOOO   ",
"oooooooooooooooooooooo            +++OOOOOOOOOO   ",
"oooooooooooooooooooooo   OOOOOOOOO+++OOOOOOOOOO   ",
"oooooooooooooooooooooo   OOOOOOOOO+++OOOOOOOOOO   ",
"oooooooooooooooooooooo   OOOOOOOOO+++OOOOOOOOOO   ",
"oooooooooooooooooooooo   OOOOOOOOO+++OOOOOOOOOO   ",
"oooooooooooo             OOOoooooo+++OOOOOOOOOO   ",
"oooooooooooo             OOOoooooo+++OOOOOOOOOO   ",
"oooooooooooo             OOOoooooo+++OOOOOOOOOO   ",
"ooooooooo       oooooooooOOOoooooo+++OOOOOOOOOO   ",
"ooooooooo       oooooooooOOOoooooo+++OOOOOOOOOO   ",
"ooooooooo       oooooooooOOOoooooo+++OOOOOOOOOO   ",
"ooooooooo       oooXXXXXXOOOoooooo+++OOOOOOOOOO   ",
"ooooooooo       oooXXXXXXOOOoooooo+++OOOOOOOOOO   ",
"ooooooooo       oooXXXXXXOOOoooooo+++OOOOOOOOOO   ",
"ooo             oooXXXXXXOOOoooooo+++++++++++++   ",
"ooo             oooXXXXXXOOOoooooo+++++++++++++   ",
"ooo             oooXXXXXXOOOoooooo+++++++++++++   ",
"      XXXXXXXXXXoooXXXXXXOOOooooooOOO..........   ",
"      XXXXXXXXXXoooXXXXXXOOOooooooOOO..........   ",
"      XXXXXXXXXXoooXXXXXXOOOooooooOOO..........   ",
"      XXX.......oooXXXXXXOOOOOOOOOOOO..........   ",
"      XXX.......oooXXXXXXOOOOOOOOOOOO..........   ",
"      XXX.......oooXXXXXXOOOOOOOOOOOO..........   ",
"      XXX.......oooXXXXXXooo...................   ",
"      XXX.......oooXXXXXXooo...................   ",
"      XXX.......oooXXXXXXooo...................   ",
"      XXX.......oooooooooooo...................   ",
"      XXX.......oooooooooooo...................   ",
"      XXX.......oooooooooooo...................   ",
"      XXX.......oooooooooooo...................   ",
"      XXX.......XXX............................   ",
"      XXX.......XXX............................   ",
"      XXX.......XXX............................   ",
"      XXXXXXXXXXXXX............................   ",
"      XXXXXXXXXXXXX............................   ",
"      XXXXXXXXXXXXX............................   ",
"                                                  ",
"                                                  ",
"                                                  "
};
