/* XPM */
static char *d7a6d170d5694e1daa1ad14809a93ae7[] = {
/* columns rows colors chars-per-pixel */
"50 50 9 1 ",
"  c #120C20",
". c #14122F",
"X c #1B1F3F",
"o c #232B4E",
"O c #3B4B70",
"+ c #4D6082",
"@ c #5F7495",
"# c #8DA2BB",
"$ c #C5D0DF",
/* pixels */
"@@@@@@@@@@@@@@@@@@@@@@@@@@@@@@@@@@@@@@@@@@@@@@@@@@",
"@@@@@@@@@@@@@@@@@@@@@@@@@@@@@@@@@@@@@@@@@@@@@@@@@@",
"@@@@@@@@@@@@@@@@@@@@@@@@@@@@@@@@@@@@@@@@@@@@@@@@@@",
"@@@@@@@@@@@@@@@@@@@@@@@@@@@@@@@@@@@@@@@@@@@@@@@@@@",
"@@@@                                          @@@@",
"@@@@                                          @@@@",
"@@@@                                          @@@@",
"@@@@XXX                                    ooo@@@@",
"@@@@XXX                                    ooo@@@@",
"@@@@XXX                                  oo###@@@@",
"@@@@XXX                                  oo###@@@@",
"@@@@OOO                                  oo$$$@@@@",
"@@@@OOO                                  oo$$$@@@@",
"@@@@OOO                                  oo$$$@@@@",
"@@@@ooo                                  $$$$$@@@@",
"@@@@ooo                                  $$$$$@@@@",
"@@@@ooo                                  $$$$$@@@@",
"@@@@OOO                                  @@@@@@@@@",
"@@@@OOO                                  @@@@@@@@@",
"@@@@OOO                                  @@@@@@@@@",
"@@@@+++                                    @@@@@@@",
"@@@@+++                                    @@@@@@@",
"@@@@+++                                    @@@@@@@",
"@@@@+++XX                                     @@@@",
"@@@@+++XX                                     @@@@",
"@@@@OOOOO                                     @@@@",
"@@@@OOOOO                                     @@@@",
"@@@@OOOOO                                     @@@@",
"@@@@OOOOO                                     @@@@",
"@@@@OOOOO                                     @@@@",
"@@@@OOO                                  XXXXX@@@@",
"@@@@OOO                                  XXXXX@@@@",
"@@@@OOO                                  XXXXX@@@@",
"@@@@OOO                            ....XXXXXXX@@@@",
"@@@@OOO                            ....XXXXXXX@@@@",
"@@@@oooXX..                      ..XXXXXXOOOOO@@@@",
"@@@@oooXX..                      ..XXXXXXOOOOO@@@@",
"@@@@oooXX..                      ..XXXXXXOOOOO@@@@",
"@@@@oooXX..                      ..XXXXXXOOOOO@@@@",
"@@@@oooXXXXXXX   oooooooo        ooOOOOOOooooo@@@@",
"@@@@oooXXXXXXX   oooooooo        ooOOOOOOooooo@@@@",
"@@@@ooo@@OOXXXXXXoooooooooo   ooooooooooo@@OOO@@@@",
"@@@@ooo@@OOXXXXXXoooooooooo   ooooooooooo@@OOO@@@@",
"@@@@                                          @@@@",
"@@@@                                          @@@@",
"@@@@                                          @@@@",
"@@@@@@@@@@@@@@@@@@@@@@@@@@@@@@@@@@@@@@@@@@@@@@@@@@",
"@@@@@@@@@@@@@@@@@@@@@@@@@@@@@@@@@@@@@@@@@@@@@@@@@@",
"@@@@@@@@@@@@@@@@@@@@@@@@@@@@@@@@@@@@@@@@@@@@@@@@@@",
"@@@@@@@@@@@@@@@@@@@@@@@@@@@@@@@@@@@@@@@@@@@@@@@@@@"
};
