/* XPM */
static char *_d4f945bdc454035a1b0c5817a509e1bC7KtyUdMny2UiF4G[] = {
/* columns rows colors chars-per-pixel */
"50 50 14 1 ",
"  c #0E071B",
". c #181425",
"X c #1A1932",
"o c #222440",
"O c #2A2F4E",
"+ c #1E6F50",
"@ c #3A4466",
"# c #424C6E",
"$ c #33984B",
"% c #5AC54F",
"& c #546080",
"* c #657392",
"= c #92A1B9",
"- c #C7CFDD",
/* pixels */
"..................................................",
"..................................................",
"..................................................",
"ooo............................................OOO",
"ooo............................................OOO",
"ooo................          ..................OOO",
"ooo................          ...............OOO===",
"ooo...........       %%%%%%       ..........OOO===",
"ooo...........       %%%%%%       ..........OOO===",
"###...........       %%%%%%       ..........OOO---",
"###........   -----  %%%%%%  -----  ........OOO---",
"###........   -----  %%%%%%  -----  ........OOO---",
"OOO........   --===  $$$$$$  ==---  ........------",
"OOO........   --===  $$$$$$  ==---  ........------",
"OOO........   --===  $$$$$$  ==---  ........------",
"OOO......  ---=====  $$$$$$  =====--   .....------",
"###......  ---=====  $$$$$$  =====--   .....******",
"###......  ---=====  $$$$$$  =====--   .....******",
"###......  ***====================**   .....******",
"&&&......  ***====================**   ........***",
"&&&......  *****===============*****   ........***",
"&&&......  *****===============*****   ........***",
"&&&ooo...  *****===============*****   ...........",
"&&&ooo.....   ====================  ..............",
"&&&ooo.....   ====================  ..............",
"######.....     ***==========**              .....",
"######.....     ***==========**              .....",
"######...  -----               ===  #####    .....",
"######...  -----               ===  #####    .....",
"######...  -----               ===  #####    .....",
"#####    --***==***==******==*******   ##    .....",
"###..    --***==***==******==*******   ##    ooooo",
"###..    $$$$$@@***==========**###++   ##    ooooo",
"###..    $$$$$@@***==========**###++   ##    ooooo",
"###..    $$$$$@@***==========**###++   ##    ooooo",
"###..    ==***  ***************     #####    ooooo",
"###..    ==***  ***************     #####    ooooo",
"OOOoo    ==***  ***************     #####    #####",
"OOOoooXXX       ===============   #####  ooo######",
"OOOoooXXX       ===============   #####  ooo######",
"OOOoooXXX.....  *****      ****        ooooo######",
"OOOooooooooo..  *****      ****        #####OOOOOO",
"OOOooooooooo..  *****      ****        #####OOOOOO",
"OOOooooooooo..  =====      ====   OOO#######OOOOOO",
"OOO***###ooooo  =====      ====   OOOOOOOOOO***###",
"OOO***###oooooooOOOOOOOOOOOO...OOOOOOOOOOOOO***###",
"OOO***###oooooooOOOOOOOOOOOO...OOOOOOOOOOOOO***###",
"..................................................",
"..................................................",
".................................................."
};
