/* XPM */
static char *d5401b3e5af8495ca9bcae3c0e65e799IDwDfZdCAKsIpBzr[] = {
/* columns rows colors chars-per-pixel */
"50 50 12 1 ",
"  c #0E071B",
". c #181425",
"X c #1A1932",
"o c #222440",
"O c #2A2F4E",
"+ c #424C6E",
"@ c #33984B",
"# c #5AC54F",
"$ c #546080",
"% c #657392",
"& c #92A1B9",
"* c #C7CFDD",
/* pixels */
"..................................................",
"..................................................",
"..................................................",
"ooo............................................OOO",
"ooo............................................OOO",
"ooo..................          ................OOO",
"ooo..................          .............OOO&&&",
"ooo.............       ######       ........OOO&&&",
"ooo.............       ######       ........OOO&&&",
"+++.............       ######       ........OOO***",
"+++...........  *****  @@@@@@  *****   .....OOO***",
"+++...........  *****  @@@@@@  *****   .....OOO***",
"OOO...........  ***&&  @@@@@@  &&&**   .....******",
"OOO...........  ***&&  @@@@@@  &&&**   .....******",
"OOO...........  ***&&  @@@@@@  &&&**   .....******",
"OOO........   **&&&&&&&&&&&&&&&&&&&&***  ...******",
"+++........   **&&&&&&&&&&&&&&&&&&&&***  ...%%%%%%",
"+++........   **&&&&&&&&&&&&&&&&&&&&***  ...%%%%%%",
"+++........   &&&&&               &&&&&  ...%%%%%%",
"$$$........   &&&&&               &&&&&  ......%%%",
"$$$........   %%%%%               %%%%%  ......%%%",
"$$$........   %%%%%               %%%%%  ......%%%",
"$$$ooo.....   %%%%%               %%%%%  .........",
"$$$ooo........  &&&****      *****&&   ...........",
"$$$ooo........  &&&****      *****&&   ...........",
"+++++                        &&&&&     ...........",
"+++++                        &&&&&     ...........",
"+++++    &&&&&*******             *****  .........",
"+++++    &&&&&*******             *****  .........",
"+++++    &&&&&*******             *****  .........",
"+++++    &&@@@#####**  %%%%%%&&%%%&&%%%**    .....",
"+++..    &&@@@#####**  %%%%%%&&%%%&&%%%**    ooooo",
"+++..    %%@@@@@###&&  &&&&&&&&%%%++@@@@@    ooooo",
"+++..    %%@@@@@###&&  &&&&&&&&%%%++@@@@@    ooooo",
"+++..    %%@@@@@###&&  &&&&&&&&%%%++@@@@@    ooooo",
"+++..    %%@@@@@###&&  %%%%%%%%%%%  %%%&&    ooooo",
"+++..    %%@@@@@###&&  %%%%%%%%%%%  %%%&&    ooooo",
"OOOoo    %%@@@@@###&&  %%%%%%%%%%%  %%%&&    +++++",
"OOOoooXXX  %%%%%&&&  &&&&&&&&&&&&&       ooo++++++",
"OOOoooXXX  %%%%%&&&  &&&&&&&&&&&&&       ooo++++++",
"OOOoooXXX..        %%%%      %%%%%  Xooooooo++++++",
"OOOoooooooo        %%%%      %%%%%  O+++++++OOOOOO",
"OOOoooooooo        %%%%      %%%%%  O+++++++OOOOOO",
"OOOooooooooo....   &&&&      &&&&&  O+++++++OOOOOO",
"OOO%%%+++ooooooo   &&&&      &&&&&  OOOOOOOO%%%+++",
"OOO%%%+++oooooooOOOOOOOOOOOO...OOOOOOOOOOOOO%%%+++",
"OOO%%%+++oooooooOOOOOOOOOOOO...OOOOOOOOOOOOO%%%+++",
"..................................................",
"..................................................",
".................................................."
};
