/* XPM */
static char *_328d5c315ec49fa81d356e59084c0beuezH3ouo8jcIBidp[] = {
/* columns rows colors chars-per-pixel */
"50 50 11 1 ",
"  c #0E071B",
". c #181425",
"X c #222440",
"o c #2A2F4E",
"O c #424C6E",
"+ c #33984B",
"@ c #5AC54F",
"# c #546080",
"$ c #657392",
"% c #92A1B9",
"& c #C7CFDD",
/* pixels */
"$$$$$$$$$$$$$$$$$$$$$$$$$$$$$$$$$$$$$$$$$$$$$$$$$$",
"$$$$$$$$$$$$$$$$$$$$$$$$$$$$$$$$$$$$$$$$$$$$$$$$$$",
"$$$$$$$$$$$$$$$$$$$$$$$$$$$$$$$$$$$$$$$$$$$$$$$$$$",
"$$$$$$$$$$$$$$$$$$$$$$$$$$$$$$$$$$$$$$$$$$$$$$$$$$",
"$$$$..........................................$$$$",
"$$$$.................          ...............$$$$",
"$$$$.................          ...............$$$$",
"$$$$XXX.........       @@@@@@       .......ooo$$$$",
"$$$$XXX.........       @@@@@@       .......ooo$$$$",
"$$$$XXX.........       @@@@@@       .....oo%%%$$$$",
"$$$$XXX.......  &&&&&  ++++++  &&&&&   ..oo%%%$$$$",
"$$$$XXX.......  &&&&&  ++++++  &&&&&   ..oo%%%$$$$",
"$$$$OOO.......  &&&%%  ++++++  %%%&&   ..oo&&&$$$$",
"$$$$OOO.......  &&&%%  ++++++  %%%&&   ..oo&&&$$$$",
"$$$$ooo.......  &&&%%  ++++++  %%%&&   ..&&&&&$$$$",
"$$$$ooo....   &&%%%%%%%%%%%%%%%%%%%%&&&  &&&&&$$$$",
"$$$$ooo....   &&%%%%%%%%%%%%%%%%%%%%&&&  &&&&&$$$$",
"$$$$OOO....   &&%%%%%%%%%%%%%%%%%%%%&&&  $$$$$$$$$",
"$$$$OOO....   %%%%%               %%%%%  $$$$$$$$$",
"$$$$OOO....   %%%%%               %%%%%  $$$$$$$$$",
"$$$$###....   $$$$$               $$$$$  ..$$$$$$$",
"$$$$###....   $$$$$               $$$$$  ..$$$$$$$",
"$$$$###XX..   $$$$$               $$$$$  .....$$$$",
"$$$$###XX.....  %%%&&&&      &&&&&%%   .......$$$$",
"$$$$###XX.....  %%%&&&&      &&&&&%%   .......$$$$",
"$$$$O                        %%%%%     .......$$$$",
"$$$$O                        %%%%%     .......$$$$",
"$$$$O    %%%%%&&&&&&&             &&&&&  .....$$$$",
"$$$$O    %%%%%&&&&&&&             &&&&&  .....$$$$",
"$$$$O    %%%%%&&&&&&&             &&&&&  .....$$$$",
"$$$$O    %%+++@@@@@&&  $$$$$$%%$$$%%$$$&&    X$$$$",
"$$$$O    %%+++@@@@@&&  $$$$$$%%$$$%%$$$&&    X$$$$",
"$$$$O    $$+++++@@@%%  %%%%%%%%$$$OO+++++    X$$$$",
"$$$$O    $$+++++@@@%%  %%%%%%%%$$$OO+++++    X$$$$",
"$$$$O    $$+++++@@@%%  %%%%%%%%$$$OO+++++    X$$$$",
"$$$$o    $$+++++@@@%%  $$$$$$$$$$$  $$$%%    O$$$$",
"$$$$o    $$+++++@@@%%  $$$$$$$$$$$  $$$%%    O$$$$",
"$$$$o    $$+++++@@@%%  $$$$$$$$$$$  $$$%%    O$$$$",
"$$$$oooXX  $$$$$%%%  %%%%%%%%%%%%%       ooooo$$$$",
"$$$$oooXX  $$$$$%%%  %%%%%%%%%%%%%       ooooo$$$$",
"$$$$oooXXXX        $$$$      $$$$$  OOOOOooooo$$$$",
"$$$$ooo$$OO        $$$$      $$$$$  ooooo$$OOO$$$$",
"$$$$ooo$$OO        $$$$      $$$$$  ooooo$$OOO$$$$",
"$$$$............   %%%%      %%%%%  ..........$$$$",
"$$$$............   %%%%      %%%%%  ..........$$$$",
"$$$$..........................................$$$$",
"$$$$$$$$$$$$$$$$$$$$$$$$$$$$$$$$$$$$$$$$$$$$$$$$$$",
"$$$$$$$$$$$$$$$$$$$$$$$$$$$$$$$$$$$$$$$$$$$$$$$$$$",
"$$$$$$$$$$$$$$$$$$$$$$$$$$$$$$$$$$$$$$$$$$$$$$$$$$",
"$$$$$$$$$$$$$$$$$$$$$$$$$$$$$$$$$$$$$$$$$$$$$$$$$$"
};
