/* XPM */
static char *_e905f5fded3422aa32b7bdefdd50350[] = {
/* columns rows colors chars-per-pixel */
"50 50 6 1 ",
"  c #181425",
". c #262B44",
"X c #3A4466",
"o c #657392",
"O c #92A1B9",
"+ c #C7CFDD",
/* pixels */
"oooooooo..................................oooooooo",
"oooooooo..................................oooooooo",
"oooooooo..OOOOOOOOOOOOOOOOOOOOOOOOOOOOOO..oooooooo",
"oooooooo..OOOOOOOOOOOOOOOOOOOOOOOOOOOOOO..oooooooo",
"oooooooo..OOOOOOOOOOOOOOOOOOOOOOOOOOOOOO..oooooooo",
"oooooooo..OOOOOOOOOOOOOOOOOOOOOOOOOOOOOO..oooooooo",
"oooooooo..++OOOOOOOOOOOOOOOOOOOOOOOOOO++..oooooooo",
"oooooooo..++OOOOOOOOOOOOOOOOOOOOOOOOOO++..oooooooo",
"oooooooo  ++OOOOOOOOOOOOOOOOOOOOOOOOOO++  oooooooo",
"oooooooo  ++OOOOOOOOOOOOOOOOOOOOOOOOOO++  oooooooo",
"oooooooo  ++OOOOOOOOOOOOOOOOOOOOOOOOOO++  oooooooo",
"oooooooo  OOOOOOOOOOOOOOOOOOOOOOOOOOOOOO  oooooooo",
"oooooooo  ++OOOOOOOOOOOOOOOOOOOOOOOOOO++  oooooooo",
"oooooooo  ++OOOOOOOOOOOOOOOOOOOOOOOOOO++  oooooooo",
"oooooooo  ++++++++++++++++++++++++++++++  oooooooo",
"oooooooo  ++++++++++++++++++++++++++++++  oooooooo",
"oooooooo  oooooooooooooooooooooooooooooo  oooooooo",
"oooooooo  oooooooooooooooooooooooooooooo  oooooooo",
"oooooooo  oooooooooooooooooooooooooooooo  oooooooo",
"oooooooo                                  oooooooo",
"oooooooooooo XXXXXXXXXXXXXXXXXXXXXXXX oooooooooooo",
"oooooooooooo XXXXXXXXXXXXXXXXXXXXXXXX oooooooooooo",
"oooooooooooo XXXXoooooooooooooooooooo oooooooooooo",
"ooooooooooooo  ...XXXXXXXXXXXXXXXXX  ooooooooooooo",
"ooooooooooooo  ...XXXXXXXXXXXXXXXXX  ooooooooooooo",
"ooooooooooooo  oooooooooooooooooooo  ooooooooooooo",
"ooooooooooooo  oooooooooooooooooooo  ooooooooooooo",
"ooooooooooooo  oooooooooooooooooooo  ooooooooooooo",
"ooooooooooooo  oooooooooooooooooooo  ooooooooooooo",
"ooooooooooooo  oooooooooooooooooooo  ooooooooooooo",
"oooooooooo   ..oooooooooooooooooooo..   oooooooooo",
"oooooooooo  O..oooooooooooooooooooo..O  oooooooooo",
"oooooooooo  O..oooooooooooooooooooo..O  oooooooooo",
"oooooooooo  O..oooooooooooooooooooo..O  oooooooooo",
"oooooooooo  O..oooooooooooooooooooo..O  oooooooooo",
"oooooooooo  O..oooooooooooooooooooo..O  oooooooooo",
"oooooooooo  O..oooooooooooooooooooo..O  oooooooooo",
"oooooooooo  O..oooooooooooooooooooo..O  oooooooooo",
"oooooooooo  O..oooooooooooooooooooo..O  oooooooooo",
"oooooooooo  +........................O  oooooooooo",
"oooooooooo  +........................O  oooooooooo",
"ooooooooXX  ++++++++++++++++++++OOOOOO  XXoooooooo",
"ooooooooXX  oooooooooooooooooooooooooo  XXoooooooo",
"ooooooooXX  oooooooooooooooooooooooooo  XXoooooooo",
"ooooooooXX  oooooooooooooooooooooooooo  XXoooooooo",
"ooooooooXX                              XXoooooooo",
"ooooooooXX                              XXoooooooo",
"ooooooooXXXXXXXXXXXXXXXXXXXXXXXXXXXXXXXXXXoooooooo",
"ooooooooooXXXXXXXXXXXXXXXXXXXXXXXXXXXXXXoooooooooo",
"ooooooooooXXXXXXXXXXXXXXXXXXXXXXXXXXXXXXoooooooooo"
};
