/* XPM */
static char *_322c7dcf7a04ecef9c61ec50e8b34c5l4oPlwSwDg2kEIqV[] = {
/* columns rows colors chars-per-pixel */
"50 50 12 1 ",
"  c #0E071B",
". c #181425",
"X c #1A1932",
"o c #222440",
"O c #2A2F4E",
"+ c #424C6E",
"@ c #33984B",
"# c #5AC54F",
"$ c #546080",
"% c #657392",
"& c #92A1B9",
"* c #C7CFDD",
/* pixels */
"..................................................",
"..................................................",
"..................................................",
"ooo............................................OOO",
"ooo............................................OOO",
"ooo...........                       ..........OOO",
"ooo...........                       .......OOO&&&",
"ooo........   #######################   ....OOO&&&",
"ooo........   #######################   ....OOO&&&",
"+++........   #######################   ....OOO***",
"+++........   ######@@@@@@@@@@@@@@@@@@@@   .OOO***",
"+++........   ######@@@@@@@@@@@@@@@@@@@@   .OOO***",
"OOO........   ######*********&&&**@@@@@@   .******",
"OOO........   ######*********&&&**@@@@@@   .******",
"OOO........   ######*********&&&**@@@@@@   .******",
"OOO...........   ***&&&&&&&&&&&&&&&&&@@@   .******",
"+++...........   ***&&&&&&&&&&&&&&&&&@@@   .%%%%%%",
"+++...........   ***&&&&&&&&&&&&&&&&&@@@   .%%%%%%",
"+++...........           %%%%&&&&&&&&@@@   .%%%%%%",
"$$$...........           %%%%&&&&&&&&@@@   ....%%%",
"$$$...........           %%%%%%%&&&&&   .......%%%",
"$$$...........           %%%%%%%&&&&&   .......%%%",
"$$$ooo........           %%%%%%%&&&&&   ..........",
"$$$ooo........      &&&&&%%%%&&&&&%%%   ..........",
"$$$ooo........      &&&&&%%%%&&&&&%%%   ..........",
"++++++.....         %%&&&&&&&&&&%%   .............",
"++++++.....         %%&&&&&&&&&&%%   .............",
"++++++.....   %%%                 ................",
"++++++.....   %%%                 ................",
"++++++.....   %%%                 ................",
"++++++.....   @@@     %%%&&*****  ................",
"+++........   @@@     %%%&&*****  ..........oooooo",
"+++........   @@@     &&&  @@@@@  ..........oooooo",
"+++........   @@@     &&&  @@@@@  ..........oooooo",
"+++........   @@@     &&&  @@@@@  ...XXXXooooooooo",
"+++........   @@@     %%%  %%&&&  ...XXXXooooooooo",
"+++........   @@@     %%%  %%&&&  ...XXXXooooooooo",
"OOOoooXXX..   @@@     %%%  %%&&&  XXXooooooo++++++",
"OOOoooXXX..   %%%     &&&&&     ..XXXooooooo++++++",
"OOOoooXXX..   %%%     &&&&&     ..XXXooooooo++++++",
"OOOoooXXX.....           %%%%   ..XXXooooooo++++++",
"OOOooooooooo..           %%%%   ..OOO+++++++OOOOOO",
"OOOooooooooo..           %%%%   ..OOO+++++++OOOOOO",
"OOOooooooooo....OOOO     &&&&   ..OOO+++++++OOOOOO",
"OOO%%%+++oooooooOOOO     &&&&   OOOOOOOOOOOO%%%+++",
"OOO%%%+++oooooooOOOOOOOOOOOO...OOOOOOOOOOOOO%%%+++",
"OOO%%%+++oooooooOOOOOOOOOOOO...OOOOOOOOOOOOO%%%+++",
"..................................................",
"..................................................",
".................................................."
};
