/* XPM */
static char *bdb706c0d8ed49c69d87804b4d9011f1W23zUp2DOZCT69BN[] = {
/* columns rows colors chars-per-pixel */
"50 50 13 1 ",
"  c #0E071B",
". c #181425",
"X c #1A1932",
"o c #222440",
"O c #2A2F4E",
"+ c #1E6F50",
"@ c #424C6E",
"# c #33984B",
"$ c #5AC54F",
"% c #546080",
"& c #657392",
"* c #92A1B9",
"= c #C7CFDD",
/* pixels */
"..................................................",
"..................................................",
"..................................................",
"ooo............................................OOO",
"ooo............................................OOO",
"ooo..........                       ...........OOO",
"ooo..........                       ........OOO***",
"ooo........  $$$$$$$$$$$$$$$$$$$$$$$   .....OOO***",
"ooo........  $$$$$$$$$$$$$$$$$$$$$$$   .....OOO***",
"@@@........  $$$$$$$$$$$$$$$$$$$$$$$   .....OOO===",
"@@@.....   ####################$$$$$   .....OOO===",
"@@@.....   ####################$$$$$   .....OOO===",
"OOO.....   #####===**==========$$$$$   .....======",
"OOO.....   #####===**==========$$$$$   .....======",
"OOO.....   #####===**==========$$$$$   .....======",
"OOO.....   ##******************==   ........======",
"@@@.....   ##******************==   ........&&&&&&",
"@@@.....   ##******************==   ........&&&&&&",
"@@@.....   ##********&&&&&          ........&&&&&&",
"%%%.....   ##********&&&&&          ...........&&&",
"%%%........  ******&&&&&&&          ...........&&&",
"%%%........  ******&&&&&&&          ...........&&&",
"%%%ooo.....  ******&&&&&&&          ..............",
"%%%ooo.....  &&&*****&&&&&*****     ..............",
"%%%ooo.....  &&&*****&&&&&*****     ..............",
"@@@@@@.......   &&&*********           ...........",
"@@@@@@.......   &&&*********           ...........",
"@@@@@@..........               =====   ...........",
"@@@@@@..........               =====   ...........",
"@@@@@@..........               =====   ...........",
"@@@@@@.............  *****++   ==$$$   ...........",
"@@@................  *****++   ==$$$   .....oooooo",
"@@@................     **##   **###   .....oooooo",
"@@@................     **##   **###   .....oooooo",
"@@@................     **##   **###   XXooooooooo",
"@@@................  &&&       **###   XXooooooooo",
"@@@................  &&&       **###   XXooooooooo",
"OOOoooXXX..........  &&&       **###   ooooo@@@@@@",
"OOOoooXXX..........  *******     ***   ooooo@@@@@@",
"OOOoooXXX..........  *******     ***   ooooo@@@@@@",
"OOOoooXXX..........  &&&&&          Xooooooo@@@@@@",
"OOOooooooooo....OOO  &&&&&          O@@@@@@@OOOOOO",
"OOOooooooooo....OOO  &&&&&          O@@@@@@@OOOOOO",
"OOOooooooooo....OOO  *****     ...OOO@@@@@@@OOOOOO",
"OOO&&&@@@oooooooOOO  *****     OOOOOOOOOOOOO&&&@@@",
"OOO&&&@@@oooooooOOOOOOOOOOOO...OOOOOOOOOOOOO&&&@@@",
"OOO&&&@@@oooooooOOOOOOOOOOOO...OOOOOOOOOOOOO&&&@@@",
"..................................................",
"..................................................",
".................................................."
};
