/* XPM */
static char *_950b5e4b5e744b0d58b19e64aafe5bdfIHKoTGQNFHG5hde[] = {
/* columns rows colors chars-per-pixel */
"50 50 13 1 ",
"  c #0E071B",
". c #181425",
"X c #1A1932",
"o c #222440",
"O c #2A2F4E",
"+ c #1E6F50",
"@ c #424C6E",
"# c #33984B",
"$ c #5AC54F",
"% c #546080",
"& c #657392",
"* c #92A1B9",
"= c #C7CFDD",
/* pixels */
"&&&&&&&&&&&&&&&&&&&&&&&&&&&&&&&&&&&&&&&&&&&&&&&&&&",
"&&&&&&&&&&&&&&&&&&&&&&&&&&&&&&&&&&&&&&&&&&&&&&&&&&",
"&&&&&&&&&&&&&&&&&&&&&&&&&&&&&&&&&&&&&&&&&&&&&&&&&&",
"&&&&&&&&&&&&&&&&&&&&&&&&&&&&&&&&&&&&&&&&&&&&&&&&&&",
"&&&&..........................................&&&&",
"&&&&.........                       ..........&&&&",
"&&&&.........                       ..........&&&&",
"&&&&ooo....  $$$$$$$$$$$$$$$$$$$$$$$   ....OOO&&&&",
"&&&&ooo....  $$$$$$$$$$$$$$$$$$$$$$$   ....OOO&&&&",
"&&&&ooo....  $$$$$$$$$$$$$$$$$$$$$$$   ..OO***&&&&",
"&&&&ooo.   ####################$$$$$   ..OO***&&&&",
"&&&&ooo.   ####################$$$$$   ..OO***&&&&",
"&&&&@@@.   #####===**==========$$$$$   ..OO===&&&&",
"&&&&@@@.   #####===**==========$$$$$   ..OO===&&&&",
"&&&&OOO.   #####===**==========$$$$$   ..=====&&&&",
"&&&&OOO.   ##******************==   .....=====&&&&",
"&&&&OOO.   ##******************==   .....=====&&&&",
"&&&&@@@.   ##******************==   .....&&&&&&&&&",
"&&&&@@@.   ##********&&&&&          .....&&&&&&&&&",
"&&&&@@@.   ##********&&&&&          .....&&&&&&&&&",
"&&&&%%%....  ******&&&&&&&          .......&&&&&&&",
"&&&&%%%....  ******&&&&&&&          .......&&&&&&&",
"&&&&%%%oo..  ******&&&&&&&          ..........&&&&",
"&&&&%%%oo..  &&&*****&&&&&*****     ..........&&&&",
"&&&&%%%oo..  &&&*****&&&&&*****     ..........&&&&",
"&&&&@@@@@....   &&&*********           .......&&&&",
"&&&&@@@@@....   &&&*********           .......&&&&",
"&&&&@@@@@.......               =====   .......&&&&",
"&&&&@@@@@.......               =====   .......&&&&",
"&&&&@@@@@.......               =====   .......&&&&",
"&&&&@@@............  *****++   ==$$$   ..ooooo&&&&",
"&&&&@@@............  *****++   ==$$$   ..ooooo&&&&",
"&&&&@@@............     **##   **###   ..ooooo&&&&",
"&&&&@@@............     **##   **###   ooooooo&&&&",
"&&&&@@@............     **##   **###   ooooooo&&&&",
"&&&&OOOooXXX.......  &&&       **###   oo@@@@@&&&&",
"&&&&OOOooXXX.......  &&&       **###   oo@@@@@&&&&",
"&&&&OOOooXXX.......  &&&       **###   oo@@@@@&&&&",
"&&&&OOOooooooo...OO  *******     ***   @@OOOOO&&&&",
"&&&&OOOooooooo...OO  *******     ***   @@OOOOO&&&&",
"&&&&OOOooooooo...OO  &&&&&          @@@@@OOOOO&&&&",
"&&&&OOO&&@@@oooooOO  &&&&&          OOOOO&&@@@&&&&",
"&&&&OOO&&@@@oooooOO  &&&&&          OOOOO&&@@@&&&&",
"&&&&...............  *****     ...............&&&&",
"&&&&...............  *****     ...............&&&&",
"&&&&..........................................&&&&",
"&&&&&&&&&&&&&&&&&&&&&&&&&&&&&&&&&&&&&&&&&&&&&&&&&&",
"&&&&&&&&&&&&&&&&&&&&&&&&&&&&&&&&&&&&&&&&&&&&&&&&&&",
"&&&&&&&&&&&&&&&&&&&&&&&&&&&&&&&&&&&&&&&&&&&&&&&&&&",
"&&&&&&&&&&&&&&&&&&&&&&&&&&&&&&&&&&&&&&&&&&&&&&&&&&"
};
