/* XPM */
static char *b4a0f44039484b33853a3b73fe088998[] = {
/* columns rows colors chars-per-pixel */
"50 50 9 1 ",
"  c #0E071B",
". c #1E6F50",
"X c #3A4466",
"o c #424C6E",
"O c #33984B",
"+ c #5AC54F",
"@ c #657392",
"# c #92A1B9",
"$ c #C7CFDD",
/* pixels */
"@@@@@@@@@@@@@@@@@@@@@@@@@@@@@@@@@@@@@@@@@@@@@@@@@@",
"@@@@@@@@@@@@@@@@@@@@@@@@@@@@@@@@@@@@@@@@@@@@@@@@@@",
"@@@@@@@@@@@@@@@@@@@@@@@@@@@@@@@@@@@@@@@@@@@@@@@@@@",
"@@@@@@@@@@@@@@@@@@@@@@@@@@@@@@@@@@@@@@@@@@@@@@@@@@",
"@@@@@@@@@@@@@@@@@@@@@@@@@@@@@@@@@@@@@@@@@@@@@@@@@@",
"@@@@@@@@@@@@@@@@@@@          @@@@@@@@@@@@@@@@@@@@@",
"@@@@@@@@@@@@@@@@@@@          @@@@@@@@@@@@@@@@@@@@@",
"@@@@@@@@@@@@@@       ++++++       @@@@@@@@@@@@@@@@",
"@@@@@@@@@@@@@@       ++++++       @@@@@@@@@@@@@@@@",
"@@@@@@@@@@@@@@       ++++++       @@@@@@@@@@@@@@@@",
"@@@@@@@@@@@   $$$$$  ++++++  $$$$$  @@@@@@@@@@@@@@",
"@@@@@@@@@@@   $$$$$  ++++++  $$$$$  @@@@@@@@@@@@@@",
"@@@@@@@@@@@   $$###  OOOOOO  ##$$$  @@@@@@@@@@@@@@",
"@@@@@@@@@@@   $$###  OOOOOO  ##$$$  @@@@@@@@@@@@@@",
"@@@@@@@@@@@   $$###  OOOOOO  ##$$$  @@@@@@@@@@@@@@",
"@@@@@@@@@  $$$#####  OOOOOO  #####$$   @@@@@@@@@@@",
"@@@@@@@@@  $$$#####  OOOOOO  #####$$   @@@@@@@@@@@",
"@@@@@@@@@  $$$#####  OOOOOO  #####$$   @@@@@@@@@@@",
"@@@@@@@@@  @@@####################@@   @@@@@@@@@@@",
"@@@@@@@@@  @@@####################@@   @@@@@@@@@@@",
"@@@@@@@@@  @@@@@###############@@@@@   @@@@@@@@@@@",
"@@@@@@@@@  @@@@@###############@@@@@   @@@@@@@@@@@",
"@@@@@@@@@  @@@@@###############@@@@@   @@@@@@@@@@@",
"@@@@@@@@@@@   ####################  @@@@@@@@@@@@@@",
"@@@@@@@@@@@   ####################  @@@@@@@@@@@@@@",
"@@@@@@@@@@@     @@@##########@@              @@@@@",
"@@@@@@@@@@@     @@@##########@@              @@@@@",
"@@@@@@@@@  $$$$$               ###  ooooo    @@@@@",
"@@@@@@@@@  $$$$$               ###  ooooo    @@@@@",
"@@@@@@@@@  $$$$$               ###  ooooo    @@@@@",
"@@@@@    $$@@@##@@@##@@@@@@##@@@@@@@   oo    @@@@@",
"@@@@@    $$@@@##@@@##@@@@@@##@@@@@@@   oo    @@@@@",
"@@@@@    OOOOOXX@@@##########@@ooo..   oo    @@@@@",
"@@@@@    OOOOOXX@@@##########@@ooo..   oo    @@@@@",
"@@@@@    OOOOOXX@@@##########@@ooo..   oo    @@@@@",
"@@@@@    ##@@@  @@@@@@@@@@@@@@@     ooooo    @@@@@",
"@@@@@    ##@@@  @@@@@@@@@@@@@@@     ooooo    @@@@@",
"@@@@@    ##@@@  @@@@@@@@@@@@@@@     ooooo    @@@@@",
"@@@@@@@@@       ###############   ooooo  @@@@@@@@@",
"@@@@@@@@@       ###############   ooooo  @@@@@@@@@",
"@@@@@@@@@@@@@@  @@@@@      @@@@        @@@@@@@@@@@",
"@@@@@@@@@@@@@@  @@@@@      @@@@        @@@@@@@@@@@",
"@@@@@@@@@@@@@@  @@@@@      @@@@        @@@@@@@@@@@",
"@@@@@@@@@@@@@@  #####      ####   @@@@@@@@@@@@@@@@",
"@@@@@@@@@@@@@@  #####      ####   @@@@@@@@@@@@@@@@",
"@@@@@@@@@@@@@@@@@@@@@@@@@@@@@@@@@@@@@@@@@@@@@@@@@@",
"@@@@@@@@@@@@@@@@@@@@@@@@@@@@@@@@@@@@@@@@@@@@@@@@@@",
"@@@@@@@@@@@@@@@@@@@@@@@@@@@@@@@@@@@@@@@@@@@@@@@@@@",
"@@@@@@@@@@@@@@@@@@@@@@@@@@@@@@@@@@@@@@@@@@@@@@@@@@",
"@@@@@@@@@@@@@@@@@@@@@@@@@@@@@@@@@@@@@@@@@@@@@@@@@@"
};
