/* XPM */
static char *_65d6526e6e84adafdeb457f30cf999as0p4NAOeJvTC3HJ5[] = {
/* columns rows colors chars-per-pixel */
"50 50 13 1 ",
"  c #0E071B",
". c #181425",
"X c #222440",
"o c #2A2F4E",
"O c #1E6F50",
"+ c #3A4466",
"@ c #424C6E",
"# c #33984B",
"$ c #5AC54F",
"% c #546080",
"& c #657392",
"* c #92A1B9",
"= c #C7CFDD",
/* pixels */
"&&&&&&&&&&&&&&&&&&&&&&&&&&&&&&&&&&&&&&&&&&&&&&&&&&",
"&&&&&&&&&&&&&&&&&&&&&&&&&&&&&&&&&&&&&&&&&&&&&&&&&&",
"&&&&&&&&&&&&&&&&&&&&&&&&&&&&&&&&&&&&&&&&&&&&&&&&&&",
"&&&&&&&&&&&&&&&&&&&&&&&&&&&&&&&&&&&&&&&&&&&&&&&&&&",
"&&&&..........................................&&&&",
"&&&&...............          .................&&&&",
"&&&&...............          .................&&&&",
"&&&&XXX.......       $$$$$$       .........ooo&&&&",
"&&&&XXX.......       $$$$$$       .........ooo&&&&",
"&&&&XXX.......       $$$$$$       .......oo***&&&&",
"&&&&XXX....   =====  $$$$$$  =====  .....oo***&&&&",
"&&&&XXX....   =====  $$$$$$  =====  .....oo***&&&&",
"&&&&@@@....   ==***  ######  **===  .....oo===&&&&",
"&&&&@@@....   ==***  ######  **===  .....oo===&&&&",
"&&&&ooo....   ==***  ######  **===  .....=====&&&&",
"&&&&ooo..  ===*****  ######  *****==   ..=====&&&&",
"&&&&ooo..  ===*****  ######  *****==   ..=====&&&&",
"&&&&@@@..  ===*****  ######  *****==   ..&&&&&&&&&",
"&&&&@@@..  &&&********************&&   ..&&&&&&&&&",
"&&&&@@@..  &&&********************&&   ..&&&&&&&&&",
"&&&&%%%..  &&&&&***************&&&&&   ....&&&&&&&",
"&&&&%%%..  &&&&&***************&&&&&   ....&&&&&&&",
"&&&&%%%XX  &&&&&***************&&&&&   .......&&&&",
"&&&&%%%XX..   ********************  ..........&&&&",
"&&&&%%%XX..   ********************  ..........&&&&",
"&&&&@@@@@..     &&&**********&&              .&&&&",
"&&&&@@@@@..     &&&**********&&              .&&&&",
"&&&&@@@@@  =====               ***  @@@@@    .&&&&",
"&&&&@@@@@  =====               ***  @@@@@    .&&&&",
"&&&&@@@@@  =====               ***  @@@@@    .&&&&",
"&&&&@    ==&&&**&&&**&&&&&&**&&&&&&&   @@    X&&&&",
"&&&&@    ==&&&**&&&**&&&&&&**&&&&&&&   @@    X&&&&",
"&&&&@    #####++&&&**********&&@@@OO   @@    X&&&&",
"&&&&@    #####++&&&**********&&@@@OO   @@    X&&&&",
"&&&&@    #####++&&&**********&&@@@OO   @@    X&&&&",
"&&&&o    **&&&  &&&&&&&&&&&&&&&     @@@@@    @&&&&",
"&&&&o    **&&&  &&&&&&&&&&&&&&&     @@@@@    @&&&&",
"&&&&o    **&&&  &&&&&&&&&&&&&&&     @@@@@    @&&&&",
"&&&&oooXX       ***************   @@@@@  ooooo&&&&",
"&&&&oooXX       ***************   @@@@@  ooooo&&&&",
"&&&&oooXXXXXXX  &&&&&      &&&&        @@ooooo&&&&",
"&&&&ooo&&@@@XX  &&&&&      &&&&        oo&&@@@&&&&",
"&&&&ooo&&@@@XX  &&&&&      &&&&        oo&&@@@&&&&",
"&&&&..........  *****      ****   ............&&&&",
"&&&&..........  *****      ****   ............&&&&",
"&&&&..........................................&&&&",
"&&&&&&&&&&&&&&&&&&&&&&&&&&&&&&&&&&&&&&&&&&&&&&&&&&",
"&&&&&&&&&&&&&&&&&&&&&&&&&&&&&&&&&&&&&&&&&&&&&&&&&&",
"&&&&&&&&&&&&&&&&&&&&&&&&&&&&&&&&&&&&&&&&&&&&&&&&&&",
"&&&&&&&&&&&&&&&&&&&&&&&&&&&&&&&&&&&&&&&&&&&&&&&&&&"
};
