/* XPM */
static char *_4ca4921e5c24d2b96050a6e4c4ebd83[] = {
/* columns rows colors chars-per-pixel */
"50 50 7 1 ",
"  c #0E071B",
". c #424C6E",
"X c #33984B",
"o c #5AC54F",
"O c #657392",
"+ c #92A1B9",
"@ c #C7CFDD",
/* pixels */
"OOOOOOOOOOOOOOOOOOOOOOOOOOOOOOOOOOOOOOOOOOOOOOOOOO",
"OOOOOOOOOOOOOOOOOOOOOOOOOOOOOOOOOOOOOOOOOOOOOOOOOO",
"OOOOOOOOOOOOOOOOOOOOOOOOOOOOOOOOOOOOOOOOOOOOOOOOOO",
"OOOOOOOOOOOOOOOOOOOOOOOOOOOOOOOOOOOOOOOOOOOOOOOOOO",
"OOOOOOOOOOOOOOOOOOOOOOOOOOOOOOOOOOOOOOOOOOOOOOOOOO",
"OOOOOOOOOOOOOOOOOOOOO          OOOOOOOOOOOOOOOOOOO",
"OOOOOOOOOOOOOOOOOOOOO          OOOOOOOOOOOOOOOOOOO",
"OOOOOOOOOOOOOOOO       oooooo       OOOOOOOOOOOOOO",
"OOOOOOOOOOOOOOOO       oooooo       OOOOOOOOOOOOOO",
"OOOOOOOOOOOOOOOO       oooooo       OOOOOOOOOOOOOO",
"OOOOOOOOOOOOOO  @@@@@  XXXXXX  @@@@@   OOOOOOOOOOO",
"OOOOOOOOOOOOOO  @@@@@  XXXXXX  @@@@@   OOOOOOOOOOO",
"OOOOOOOOOOOOOO  @@@++  XXXXXX  +++@@   OOOOOOOOOOO",
"OOOOOOOOOOOOOO  @@@++  XXXXXX  +++@@   OOOOOOOOOOO",
"OOOOOOOOOOOOOO  @@@++  XXXXXX  +++@@   OOOOOOOOOOO",
"OOOOOOOOOOO   @@++++++++++++++++++++@@@  OOOOOOOOO",
"OOOOOOOOOOO   @@++++++++++++++++++++@@@  OOOOOOOOO",
"OOOOOOOOOOO   @@++++++++++++++++++++@@@  OOOOOOOOO",
"OOOOOOOOOOO   +++++               +++++  OOOOOOOOO",
"OOOOOOOOOOO   +++++               +++++  OOOOOOOOO",
"OOOOOOOOOOO   OOOOO               OOOOO  OOOOOOOOO",
"OOOOOOOOOOO   OOOOO               OOOOO  OOOOOOOOO",
"OOOOOOOOOOO   OOOOO               OOOOO  OOOOOOOOO",
"OOOOOOOOOOOOOO  +++@@@@      @@@@@++   OOOOOOOOOOO",
"OOOOOOOOOOOOOO  +++@@@@      @@@@@++   OOOOOOOOOOO",
"OOOOO                        +++++     OOOOOOOOOOO",
"OOOOO                        +++++     OOOOOOOOOOO",
"OOOOO    +++++@@@@@@@             @@@@@  OOOOOOOOO",
"OOOOO    +++++@@@@@@@             @@@@@  OOOOOOOOO",
"OOOOO    +++++@@@@@@@             @@@@@  OOOOOOOOO",
"OOOOO    ++XXXooooo@@  OOOOOO++OOO++OOO@@    OOOOO",
"OOOOO    ++XXXooooo@@  OOOOOO++OOO++OOO@@    OOOOO",
"OOOOO    OOXXXXXooo++  ++++++++OOO..XXXXX    OOOOO",
"OOOOO    OOXXXXXooo++  ++++++++OOO..XXXXX    OOOOO",
"OOOOO    OOXXXXXooo++  ++++++++OOO..XXXXX    OOOOO",
"OOOOO    OOXXXXXooo++  OOOOOOOOOOO  OOO++    OOOOO",
"OOOOO    OOXXXXXooo++  OOOOOOOOOOO  OOO++    OOOOO",
"OOOOO    OOXXXXXooo++  OOOOOOOOOOO  OOO++    OOOOO",
"OOOOOOOOO  OOOOO+++  +++++++++++++       OOOOOOOOO",
"OOOOOOOOO  OOOOO+++  +++++++++++++       OOOOOOOOO",
"OOOOOOOOOOO        OOOO      OOOOO  OOOOOOOOOOOOOO",
"OOOOOOOOOOO        OOOO      OOOOO  OOOOOOOOOOOOOO",
"OOOOOOOOOOO        OOOO      OOOOO  OOOOOOOOOOOOOO",
"OOOOOOOOOOOOOOOO   ++++      +++++  OOOOOOOOOOOOOO",
"OOOOOOOOOOOOOOOO   ++++      +++++  OOOOOOOOOOOOOO",
"OOOOOOOOOOOOOOOOOOOOOOOOOOOOOOOOOOOOOOOOOOOOOOOOOO",
"OOOOOOOOOOOOOOOOOOOOOOOOOOOOOOOOOOOOOOOOOOOOOOOOOO",
"OOOOOOOOOOOOOOOOOOOOOOOOOOOOOOOOOOOOOOOOOOOOOOOOOO",
"OOOOOOOOOOOOOOOOOOOOOOOOOOOOOOOOOOOOOOOOOOOOOOOOOO",
"OOOOOOOOOOOOOOOOOOOOOOOOOOOOOOOOOOOOOOOOOOOOOOOOOO"
};
