/* XPM */
static char *_9305b6866ca4b4db9cefbe03f4fba15ssgvdejSQixVW4q0[] = {
/* columns rows colors chars-per-pixel */
"50 50 12 1 ",
"  c #0E071B",
". c #181425",
"X c #1A1932",
"o c #222440",
"O c #2A2F4E",
"+ c #424C6E",
"@ c #33984B",
"# c #5AC54F",
"$ c #546080",
"% c #657392",
"& c #92A1B9",
"* c #C7CFDD",
/* pixels */
"%%%%%%%%%%%%%%%%%%%%%%%%%%%%%%%%%%%%%%%%%%%%%%%%%%",
"%%%%%%%%%%%%%%%%%%%%%%%%%%%%%%%%%%%%%%%%%%%%%%%%%%",
"%%%%%%%%%%%%%%%%%%%%%%%%%%%%%%%%%%%%%%%%%%%%%%%%%%",
"%%%%%%%%%%%%%%%%%%%%%%%%%%%%%%%%%%%%%%%%%%%%%%%%%%",
"%%%%..........................................%%%%",
"%%%%..........                       .........%%%%",
"%%%%..........                       .........%%%%",
"%%%%ooo....   #######################   ...OOO%%%%",
"%%%%ooo....   #######################   ...OOO%%%%",
"%%%%ooo....   #######################   .OO&&&%%%%",
"%%%%ooo....   ######@@@@@@@@@@@@@@@@@@@@   &&&%%%%",
"%%%%ooo....   ######@@@@@@@@@@@@@@@@@@@@   &&&%%%%",
"%%%%+++....   ######*********&&&**@@@@@@   ***%%%%",
"%%%%+++....   ######*********&&&**@@@@@@   ***%%%%",
"%%%%OOO....   ######*********&&&**@@@@@@   ***%%%%",
"%%%%OOO.......   ***&&&&&&&&&&&&&&&&&@@@   ***%%%%",
"%%%%OOO.......   ***&&&&&&&&&&&&&&&&&@@@   ***%%%%",
"%%%%+++.......   ***&&&&&&&&&&&&&&&&&@@@   %%%%%%%",
"%%%%+++.......           %%%%&&&&&&&&@@@   %%%%%%%",
"%%%%+++.......           %%%%&&&&&&&&@@@   %%%%%%%",
"%%%%$$$.......           %%%%%%%&&&&&   ...%%%%%%%",
"%%%%$$$.......           %%%%%%%&&&&&   ...%%%%%%%",
"%%%%$$$oo.....           %%%%%%%&&&&&   ......%%%%",
"%%%%$$$oo.....      &&&&&%%%%&&&&&%%%   ......%%%%",
"%%%%$$$oo.....      &&&&&%%%%&&&&&%%%   ......%%%%",
"%%%%+++++..         %%&&&&&&&&&&%%   .........%%%%",
"%%%%+++++..         %%&&&&&&&&&&%%   .........%%%%",
"%%%%+++++..   %%%                 ............%%%%",
"%%%%+++++..   %%%                 ............%%%%",
"%%%%+++++..   %%%                 ............%%%%",
"%%%%+++....   @@@     %%%&&*****  .......ooooo%%%%",
"%%%%+++....   @@@     %%%&&*****  .......ooooo%%%%",
"%%%%+++....   @@@     &&&  @@@@@  .......ooooo%%%%",
"%%%%+++....   @@@     &&&  @@@@@  .XXXoooooooo%%%%",
"%%%%+++....   @@@     &&&  @@@@@  .XXXoooooooo%%%%",
"%%%%OOOooXX   @@@     %%%  %%&&&  Xoooooo+++++%%%%",
"%%%%OOOooXX   @@@     %%%  %%&&&  Xoooooo+++++%%%%",
"%%%%OOOooXX   @@@     %%%  %%&&&  Xoooooo+++++%%%%",
"%%%%OOOoooo   %%%     &&&&&     .OO++++++OOOOO%%%%",
"%%%%OOOoooo   %%%     &&&&&     .OO++++++OOOOO%%%%",
"%%%%OOOooooooo           %%%%   .OO++++++OOOOO%%%%",
"%%%%OOO%%+++oo           %%%%   OOOOOOOOO%%+++%%%%",
"%%%%OOO%%+++oo           %%%%   OOOOOOOOO%%+++%%%%",
"%%%%................     &&&&   ..............%%%%",
"%%%%................     &&&&   ..............%%%%",
"%%%%..........................................%%%%",
"%%%%%%%%%%%%%%%%%%%%%%%%%%%%%%%%%%%%%%%%%%%%%%%%%%",
"%%%%%%%%%%%%%%%%%%%%%%%%%%%%%%%%%%%%%%%%%%%%%%%%%%",
"%%%%%%%%%%%%%%%%%%%%%%%%%%%%%%%%%%%%%%%%%%%%%%%%%%",
"%%%%%%%%%%%%%%%%%%%%%%%%%%%%%%%%%%%%%%%%%%%%%%%%%%"
};
