/* XPM */
static char *_c4f481779bb482385de0085fc51de2e[] = {
/* columns rows colors chars-per-pixel */
"50 50 6 1 ",
"  c #0E071B",
". c #33984B",
"X c #5AC54F",
"o c #657392",
"O c #92A1B9",
"+ c #C7CFDD",
/* pixels */
"oooooooooooooooooooooooooooooooooooooooooooooooooo",
"oooooooooooooooooooooooooooooooooooooooooooooooooo",
"oooooooooooooooooooooooooooooooooooooooooooooooooo",
"oooooooooooooooooooooooooooooooooooooooooooooooooo",
"oooooooooooooooooooooooooooooooooooooooooooooooooo",
"oooooooooooo                       ooooooooooooooo",
"oooooooooooo                       ooooooooooooooo",
"ooooooooo   XXXXXXXXXXXXXXXXXXXXXXX   oooooooooooo",
"ooooooooo   XXXXXXXXXXXXXXXXXXXXXXX   oooooooooooo",
"ooooooooo   XXXXXXXXXXXXXXXXXXXXXXX   oooooooooooo",
"ooooooooo   XXXXXX....................   ooooooooo",
"ooooooooo   XXXXXX....................   ooooooooo",
"ooooooooo   XXXXXX+++++++++OOO++......   ooooooooo",
"ooooooooo   XXXXXX+++++++++OOO++......   ooooooooo",
"ooooooooo   XXXXXX+++++++++OOO++......   ooooooooo",
"oooooooooooo   +++OOOOOOOOOOOOOOOOO...   ooooooooo",
"oooooooooooo   +++OOOOOOOOOOOOOOOOO...   ooooooooo",
"oooooooooooo   +++OOOOOOOOOOOOOOOOO...   ooooooooo",
"oooooooooooo           ooooOOOOOOOO...   ooooooooo",
"oooooooooooo           ooooOOOOOOOO...   ooooooooo",
"oooooooooooo           oooooooOOOOO   oooooooooooo",
"oooooooooooo           oooooooOOOOO   oooooooooooo",
"oooooooooooo           oooooooOOOOO   oooooooooooo",
"oooooooooooo      OOOOOooooOOOOOooo   oooooooooooo",
"oooooooooooo      OOOOOooooOOOOOooo   oooooooooooo",
"ooooooooo         ooOOOOOOOOOOoo   ooooooooooooooo",
"ooooooooo         ooOOOOOOOOOOoo   ooooooooooooooo",
"ooooooooo   ooo                 oooooooooooooooooo",
"ooooooooo   ooo                 oooooooooooooooooo",
"ooooooooo   ooo                 oooooooooooooooooo",
"ooooooooo   ...     oooOO+++++  oooooooooooooooooo",
"ooooooooo   ...     oooOO+++++  oooooooooooooooooo",
"ooooooooo   ...     OOO  .....  oooooooooooooooooo",
"ooooooooo   ...     OOO  .....  oooooooooooooooooo",
"ooooooooo   ...     OOO  .....  oooooooooooooooooo",
"ooooooooo   ...     ooo  ooOOO  oooooooooooooooooo",
"ooooooooo   ...     ooo  ooOOO  oooooooooooooooooo",
"ooooooooo   ...     ooo  ooOOO  oooooooooooooooooo",
"ooooooooo   ooo     OOOOO     oooooooooooooooooooo",
"ooooooooo   ooo     OOOOO     oooooooooooooooooooo",
"oooooooooooo           oooo   oooooooooooooooooooo",
"oooooooooooo           oooo   oooooooooooooooooooo",
"oooooooooooo           oooo   oooooooooooooooooooo",
"oooooooooooooooooo     OOOO   oooooooooooooooooooo",
"oooooooooooooooooo     OOOO   oooooooooooooooooooo",
"oooooooooooooooooooooooooooooooooooooooooooooooooo",
"oooooooooooooooooooooooooooooooooooooooooooooooooo",
"oooooooooooooooooooooooooooooooooooooooooooooooooo",
"oooooooooooooooooooooooooooooooooooooooooooooooooo",
"oooooooooooooooooooooooooooooooooooooooooooooooooo"
};
