/* XPM */
static char *_625900cdc0d4fc39c70432ed96ab2f0[] = {
/* columns rows colors chars-per-pixel */
"50 50 7 1 ",
"  c #0E071B",
". c #1E6F50",
"X c #33984B",
"o c #5AC54F",
"O c #657392",
"+ c #92A1B9",
"@ c #C7CFDD",
/* pixels */
"OOOOOOOOOOOOOOOOOOOOOOOOOOOOOOOOOOOOOOOOOOOOOOOOOO",
"OOOOOOOOOOOOOOOOOOOOOOOOOOOOOOOOOOOOOOOOOOOOOOOOOO",
"OOOOOOOOOOOOOOOOOOOOOOOOOOOOOOOOOOOOOOOOOOOOOOOOOO",
"OOOOOOOOOOOOOOOOOOOOOOOOOOOOOOOOOOOOOOOOOOOOOOOOOO",
"OOOOOOOOOOOOOOOOOOOOOOOOOOOOOOOOOOOOOOOOOOOOOOOOOO",
"OOOOOOOOOOOOO                       OOOOOOOOOOOOOO",
"OOOOOOOOOOOOO                       OOOOOOOOOOOOOO",
"OOOOOOOOOOO  ooooooooooooooooooooooo   OOOOOOOOOOO",
"OOOOOOOOOOO  ooooooooooooooooooooooo   OOOOOOOOOOO",
"OOOOOOOOOOO  ooooooooooooooooooooooo   OOOOOOOOOOO",
"OOOOOOOO   XXXXXXXXXXXXXXXXXXXXooooo   OOOOOOOOOOO",
"OOOOOOOO   XXXXXXXXXXXXXXXXXXXXooooo   OOOOOOOOOOO",
"OOOOOOOO   XXXXX@@@++@@@@@@@@@@ooooo   OOOOOOOOOOO",
"OOOOOOOO   XXXXX@@@++@@@@@@@@@@ooooo   OOOOOOOOOOO",
"OOOOOOOO   XXXXX@@@++@@@@@@@@@@ooooo   OOOOOOOOOOO",
"OOOOOOOO   XX++++++++++++++++++@@   OOOOOOOOOOOOOO",
"OOOOOOOO   XX++++++++++++++++++@@   OOOOOOOOOOOOOO",
"OOOOOOOO   XX++++++++++++++++++@@   OOOOOOOOOOOOOO",
"OOOOOOOO   XX++++++++OOOOO          OOOOOOOOOOOOOO",
"OOOOOOOO   XX++++++++OOOOO          OOOOOOOOOOOOOO",
"OOOOOOOOOOO  ++++++OOOOOOO          OOOOOOOOOOOOOO",
"OOOOOOOOOOO  ++++++OOOOOOO          OOOOOOOOOOOOOO",
"OOOOOOOOOOO  ++++++OOOOOOO          OOOOOOOOOOOOOO",
"OOOOOOOOOOO  OOO+++++OOOOO+++++     OOOOOOOOOOOOOO",
"OOOOOOOOOOO  OOO+++++OOOOO+++++     OOOOOOOOOOOOOO",
"OOOOOOOOOOOOO   OOO+++++++++           OOOOOOOOOOO",
"OOOOOOOOOOOOO   OOO+++++++++           OOOOOOOOOOO",
"OOOOOOOOOOOOOOOO               @@@@@   OOOOOOOOOOO",
"OOOOOOOOOOOOOOOO               @@@@@   OOOOOOOOOOO",
"OOOOOOOOOOOOOOOO               @@@@@   OOOOOOOOOOO",
"OOOOOOOOOOOOOOOOOOO  +++++..   @@ooo   OOOOOOOOOOO",
"OOOOOOOOOOOOOOOOOOO  +++++..   @@ooo   OOOOOOOOOOO",
"OOOOOOOOOOOOOOOOOOO     ++XX   ++XXX   OOOOOOOOOOO",
"OOOOOOOOOOOOOOOOOOO     ++XX   ++XXX   OOOOOOOOOOO",
"OOOOOOOOOOOOOOOOOOO     ++XX   ++XXX   OOOOOOOOOOO",
"OOOOOOOOOOOOOOOOOOO  OOO       ++XXX   OOOOOOOOOOO",
"OOOOOOOOOOOOOOOOOOO  OOO       ++XXX   OOOOOOOOOOO",
"OOOOOOOOOOOOOOOOOOO  OOO       ++XXX   OOOOOOOOOOO",
"OOOOOOOOOOOOOOOOOOO  +++++++     +++   OOOOOOOOOOO",
"OOOOOOOOOOOOOOOOOOO  +++++++     +++   OOOOOOOOOOO",
"OOOOOOOOOOOOOOOOOOO  OOOOO          OOOOOOOOOOOOOO",
"OOOOOOOOOOOOOOOOOOO  OOOOO          OOOOOOOOOOOOOO",
"OOOOOOOOOOOOOOOOOOO  OOOOO          OOOOOOOOOOOOOO",
"OOOOOOOOOOOOOOOOOOO  +++++     OOOOOOOOOOOOOOOOOOO",
"OOOOOOOOOOOOOOOOOOO  +++++     OOOOOOOOOOOOOOOOOOO",
"OOOOOOOOOOOOOOOOOOOOOOOOOOOOOOOOOOOOOOOOOOOOOOOOOO",
"OOOOOOOOOOOOOOOOOOOOOOOOOOOOOOOOOOOOOOOOOOOOOOOOOO",
"OOOOOOOOOOOOOOOOOOOOOOOOOOOOOOOOOOOOOOOOOOOOOOOOOO",
"OOOOOOOOOOOOOOOOOOOOOOOOOOOOOOOOOOOOOOOOOOOOOOOOOO",
"OOOOOOOOOOOOOOOOOOOOOOOOOOOOOOOOOOOOOOOOOOOOOOOOOO"
};
