/* XPM */
static char *_a72baeed78c45548f4b156a8936ee2e[] = {
/* columns rows colors chars-per-pixel */
"50 50 3 1 ",
"  c #566082",
". c #657392",
"X c #6B7896",
/* pixels */
"..................................................",
"..................................................",
"..................................................",
"..................................................",
"..................................................",
"..................................................",
"...............................XXX................",
"...............................XXX................",
"...............................XXX................",
"............................XXX   ................",
"............................XXX   ................",
"............................XXX   ................",
".........................XXX   XXX................",
".........................XXX   XXX................",
".........................XXX   XXX................",
".........................XXX   XXX................",
".........................         XXX.............",
".........................         XXX.............",
".........................         XXX.............",
"..................................   .............",
"..................................   .............",
"..................................   .............",
"..................................................",
"..................................................",
"..................................................",
"..................................................",
"..................................................",
"..................................................",
".........XXX......................................",
".........XXX......................................",
".........XXX......................................",
".........   XXXXXXX...............................",
".........   XXXXXXX...............................",
".........   XXXXXXX...............................",
"............       XXX............................",
"............       XXX............................",
"............       XXX............................",
"...................   ............................",
"...................   ............................",
"...................   ............................",
"...................   ............................",
"..................................................",
"..................................................",
"..................................................",
"..................................................",
"..................................................",
"..................................................",
"..................................................",
"..................................................",
".................................................."
};
